<?xml version="1.0" encoding="UTF-8"?>
<svg version="1.1" xmlns="http://www.w3.org/2000/svg" width="512" height="512">
<path d="M0 0 C1.25781159 -0.00538554 2.51562317 -0.01077108 3.81155026 -0.01631981 C7.27754965 -0.03069615 10.74330968 -0.02655442 14.20932174 -0.019153 C17.95721744 -0.01440412 21.70506262 -0.02694634 25.45294189 -0.03717041 C32.7856214 -0.05433032 40.11821511 -0.05520425 47.45090948 -0.04995751 C53.41358232 -0.04590924 59.37622988 -0.04736715 65.33890152 -0.05270576 C66.61388905 -0.0538284 66.61388905 -0.0538284 67.91463391 -0.05497371 C69.6416258 -0.05650525 71.36861768 -0.0580436 73.09560956 -0.05958868 C89.2760597 -0.07330362 105.45646143 -0.06788316 121.63691045 -0.05640347 C136.42362861 -0.0464727 151.2102216 -0.05941084 165.99692045 -0.08333766 C181.19823481 -0.10774911 196.39949092 -0.11733147 211.60082448 -0.11068493 C220.12788033 -0.10719719 228.65483996 -0.10939533 237.18188095 -0.12693596 C244.44089113 -0.14168358 251.69973734 -0.14226007 258.95874439 -0.12486505 C262.65854004 -0.11637355 266.35804307 -0.11415972 270.05782318 -0.1295166 C274.07768385 -0.14599477 278.0968435 -0.13116907 282.11669922 -0.11352539 C283.273336 -0.1231304 284.42997278 -0.1327354 285.62165916 -0.14263147 C299.83635675 -0.014715 310.60976892 5.1202254 320.93533325 14.70018005 C330.71688908 25.03540886 333.64893167 36.71443673 333.57301331 50.59492493 C333.58109161 52.38363705 333.58109161 52.38363705 333.58933312 54.20848477 C333.60110199 57.49209223 333.59957103 60.77537079 333.5921663 64.0589807 C333.58741486 67.61055674 333.59996189 71.1620796 333.61018372 74.71363831 C333.62733867 81.66130365 333.62821859 88.60887841 333.62297081 95.55655943 C333.6189216 101.20649433 333.62038157 106.85640257 333.62571907 112.50633621 C333.62646749 113.31192212 333.62721591 114.11750803 333.62798702 114.94750563 C333.62951857 116.58430552 333.63105692 118.22110541 333.63260198 119.85790528 C333.64631515 135.19139436 333.64089774 150.52483235 333.62941677 165.85832025 C333.61948628 179.8690579 333.63242397 193.87966345 333.65635096 207.89038073 C333.68076622 222.29616707 333.69034384 236.70189195 333.68369824 251.10769856 C333.68021132 259.18762563 333.68240311 267.26745115 333.69994926 275.34736252 C333.71470166 282.22575864 333.7152672 289.1039817 333.69787835 295.98237453 C333.68939071 299.48775028 333.68716338 302.99281728 333.70252991 306.49817657 C333.71575879 310.30789607 333.70417369 314.11678367 333.6865387 317.9264679 C333.6961437 319.0208495 333.70574871 320.11523111 333.71564478 321.2427758 C333.58282289 335.24830513 328.29415102 345.98309935 318.87283325 356.13768005 C308.3222045 366.12309655 296.5098609 368.84854703 282.3706665 368.77536011 C281.11285492 368.78074565 279.85504333 368.78613118 278.55911624 368.79167992 C275.09311685 368.80605626 271.62735683 368.80191452 268.16134477 368.79451311 C264.41344907 368.78976423 260.66560388 368.80230644 256.91772461 368.81253052 C249.5850451 368.82969042 242.25245139 368.83056436 234.91975702 368.82531761 C228.95708419 368.82126935 222.99443662 368.82272726 217.03176498 368.82806587 C216.1817733 368.82881429 215.33178161 368.82956272 214.4560326 368.83033382 C212.72904071 368.83186536 211.00204882 368.83340371 209.27505694 368.83494879 C193.09460681 368.84866373 176.91420507 368.84324327 160.73375605 368.83176357 C145.9470379 368.8218328 131.1604449 368.83477094 116.37374605 368.85869776 C101.1724317 368.88310922 85.97117559 368.89269157 70.76984203 368.88604504 C62.24278617 368.88255729 53.71582654 368.88475544 45.18878555 368.90229607 C37.92977537 368.91704368 30.67092917 368.91762017 23.41192211 368.90022516 C19.71212647 368.89173365 16.01262343 368.88951983 12.31284332 368.90487671 C8.29298265 368.92135488 4.273823 368.90652918 0.25396729 368.8888855 C-0.9026695 368.8984905 -2.05930628 368.90809551 -3.25099266 368.91799158 C-17.46569024 368.7900751 -28.23910241 363.65513471 -38.56466675 354.07518005 C-48.85671912 343.20055868 -51.31839337 331.30910455 -51.00216675 316.76268005 C-50.98863159 315.56771912 -50.97509644 314.37275818 -50.96115112 313.1415863 C-50.92612967 310.22313205 -50.87701667 307.30565657 -50.81466675 304.38768005 C-51.44969116 304.40862732 -52.08471558 304.42957458 -52.73898315 304.45115662 C-55.63904751 304.53472586 -58.53885791 304.58646779 -61.43966675 304.63768005 C-62.43869019 304.67119568 -63.43771362 304.7047113 -64.4670105 304.73924255 C-70.6269596 304.82083128 -74.13094461 304.50094886 -78.81466675 300.38768005 C-82.44300338 296.56837833 -83.12467133 293.50488999 -83.31466675 288.38768005 C-83.12467133 283.27047011 -82.44300338 280.20698177 -78.81466675 276.38768005 C-72.81466675 272.38768005 -72.81466675 272.38768005 -50.81466675 272.38768005 C-50.81466675 214.30768005 -50.81466675 156.22768005 -50.81466675 96.38768005 C-58.07466675 96.38768005 -65.33466675 96.38768005 -72.81466675 96.38768005 C-80.57328744 91.21526626 -80.57328744 91.21526626 -82.81466675 86.38768005 C-83.5684821 80.78790885 -83.5877025 76.05268014 -81.18966675 70.88768005 C-77.80278673 67.3225432 -75.23011553 64.69128887 -70.2663269 64.06736755 C-67.3144428 63.99454396 -64.39069977 64.03867766 -61.43966675 64.13768005 C-60.41744019 64.15572693 -59.39521362 64.1737738 -58.3420105 64.19236755 C-55.83191926 64.23928515 -53.3237891 64.30491276 -50.81466675 64.38768005 C-50.83561401 63.66290466 -50.85656128 62.93812927 -50.87814331 62.19139099 C-50.9623737 58.84030077 -51.01366179 55.48943435 -51.06466675 52.13768005 C-51.09818237 50.9981488 -51.131698 49.85861755 -51.16622925 48.68455505 C-51.33222243 34.07715464 -46.35108987 23.25314672 -36.50216675 12.63768005 C-25.951538 2.65226356 -14.1391944 -0.07318692 0 0 Z M130.18533325 69.38768005 C125.01124138 75.96017513 125.04061752 81.68730868 125.12283325 89.70018005 C125.12734497 90.53613708 125.13185669 91.37209412 125.13650513 92.23338318 C125.14822777 94.28484654 125.16616122 96.33627278 125.18533325 98.38768005 C123.87822388 98.49982849 122.5711145 98.61197693 121.22439575 98.7275238 C116.44325681 99.26467794 112.10450188 100.40026239 107.56033325 101.95018005 C106.78472046 102.2141156 106.00910767 102.47805115 105.20999146 102.74998474 C79.35146195 111.89736354 57.0996689 131.15061781 44.84915161 155.7653656 C39.28437263 167.46905704 35.93585437 179.00072678 34.31106567 191.85398865 C33.68916952 196.45477542 32.76558192 199.44544336 30.18533325 203.38768005 C28.6056649 209.36681097 28.99933528 215.58509698 29.00003052 221.72264099 C28.99786806 223.85338559 28.97975638 225.98359103 28.96072388 228.11424255 C28.88461725 246.36230004 31.25068426 261.12783704 44.28689575 274.55174255 C57.39019057 286.91421505 72.4591194 288.53979299 89.75076294 288.53294373 C91.59409714 288.53798164 91.59409714 288.53798164 93.47467041 288.54312134 C96.82203007 288.55095417 100.16932767 288.5542966 103.51669216 288.55493712 C105.61523893 288.55565154 107.71377934 288.55779323 109.81232452 288.56043434 C117.15411283 288.5696659 124.49588308 288.57377203 131.837677 288.57298279 C138.64783766 288.57238279 145.45791891 288.58292498 152.26805949 288.59872645 C158.14270925 288.61186456 164.01733326 288.61716406 169.89199758 288.61652738 C173.38831079 288.6162742 176.88455335 288.61902447 180.38085175 288.62970543 C184.28804028 288.6413175 188.19512255 288.63660146 192.10232544 288.63059998 C193.23834198 288.63621948 194.37435852 288.64183899 195.5447998 288.64762878 C212.90709064 288.58031429 226.69232248 285.57764358 239.34939575 273.28611755 C252.04480786 259.82993168 253.37681059 244.25441718 253.42556763 226.53123474 C253.43531427 224.39184766 253.46644707 222.25340719 253.49783325 220.11424255 C253.55483578 212.62471948 253.19396562 206.31665157 250.18533325 199.38768005 C249.85533325 199.05768005 249.52533325 198.72768005 249.18533325 198.38768005 C248.88929522 196.41338327 248.5988855 194.43807832 248.33694458 192.45896912 C244.25050805 162.22698797 229.52173955 136.04645039 205.2192688 117.40061951 C191.37951032 107.24701426 174.41364124 99.55570093 157.18533325 98.38768005 C157.22013794 97.19271912 157.25494263 95.99775818 157.290802 94.7665863 C158.12737586 81.41566292 158.12737586 81.41566292 152.7204895 69.7822113 C148.02007396 65.67940361 144.77070115 65.031926 138.72439575 65.1103363 C134.96072923 65.52144449 132.96743138 66.87054365 130.18533325 69.38768005 Z " fill="#FFA007" transform="translate(130.81466674804688,111.61231994628906)"/>
<path d="M0 0 C16.03251636 12.64910256 26.52397755 29.5735528 29.89453125 49.796875 C-20.26546875 49.796875 -70.42546875 49.796875 -122.10546875 49.796875 C-118.61461274 34.66983228 -118.61461274 34.66983228 -115.41796875 28.671875 C-115.06839111 28.0001123 -114.71881348 27.32834961 -114.35864258 26.63623047 C-104.38721056 7.93616315 -88.52203067 -5.94493758 -68.10546875 -12.203125 C-44.57838823 -18.95086551 -19.68450759 -13.96485822 0 0 Z " fill="#FF7209" transform="translate(318.10546875,254.203125)"/>
<path d="M0 0 C12.61459176 8.83021423 19.04942843 19.85795143 22.19140625 34.7109375 C22.82141656 38.42754506 23.26681037 42.17354542 23.734375 45.9140625 C-41.935625 45.9140625 -107.605625 45.9140625 -175.265625 45.9140625 C-172.34439857 43.96657821 -169.80239858 42.87961873 -166.52734375 41.64941406 C-165.33448257 41.19926437 -164.1416214 40.74911469 -162.91261292 40.2853241 C-161.59281267 39.79170085 -160.27298241 39.29815788 -158.953125 38.8046875 C-157.57063554 38.28464466 -156.18826827 37.7642769 -154.80601501 37.24360657 C-151.07097107 35.83787966 -147.33411489 34.4370333 -143.59678268 33.03740311 C-140.4881976 31.87280854 -137.38044127 30.7060114 -134.27267742 29.53922749 C-127.8966229 27.14541582 -121.51968363 24.75397996 -115.14170551 22.36529827 C-107.51450558 19.50868846 -99.88999864 16.64509116 -92.26896095 13.77208138 C-86.82968758 11.72165296 -81.38876031 9.67566653 -75.94638634 7.63348198 C-72.78039861 6.44535064 -69.61519281 5.25523777 -66.4519043 4.05993652 C-62.94290532 2.73552241 -59.43086466 1.41950544 -55.91796875 0.10546875 C-54.40347389 -0.46937508 -54.40347389 -0.46937508 -52.85838318 -1.05583191 C-34.64937671 -7.83143386 -17.5057487 -10.27071383 0 0 Z " fill="#FF7209" transform="translate(385.265625,34.0859375)"/>
<path d="M0 0 C52.8 0 105.6 0 160 0 C160 22 160 22 156 28 C150.42988301 33.41410632 143.8635497 32.56383099 136.5625 32.51757812 C135.19204974 32.523003 133.82160532 32.53012771 132.45117188 32.53881836 C128.74035264 32.55701167 125.02997959 32.55000102 121.31915283 32.53730202 C117.43020451 32.52715349 113.54129362 32.53657283 109.65234375 32.54284668 C103.12232628 32.55011772 96.59248995 32.54054976 90.0625 32.52148438 C82.51994815 32.49971654 74.97782884 32.5067683 67.43528748 32.52879 C60.95186163 32.54695959 54.46856577 32.54949474 47.98512268 32.53903532 C44.11614902 32.53280891 40.24737847 32.53194111 36.37841797 32.54518127 C32.74043598 32.55676204 29.10301 32.54867426 25.46508789 32.52560425 C23.49821735 32.51781847 21.53129961 32.52965409 19.56445312 32.54211426 C8.56459929 32.43675167 8.56459929 32.43675167 4 28 C0 22 0 22 0 0 Z " fill="#FF7209" transform="translate(192,336)"/>
<path d="M0 0 C5.259375 0.12375 5.259375 0.12375 10.625 0.25 C10.625 10.81 10.625 21.37 10.625 32.25 C7.11875 32.3325 3.6125 32.415 0 32.5 C-1.09393066 32.53641602 -2.18786133 32.57283203 -3.31494141 32.61035156 C-9.36705053 32.67918861 -12.77877334 32.28642982 -17.375 28.25 C-21.00333663 24.43069828 -21.68500458 21.36720994 -21.875 16.25 C-21.68500458 11.13279006 -21.00333663 8.06930172 -17.375 4.25 C-11.91098882 -0.54852264 -7.04658779 -0.23457488 0 0 Z " fill="#FF7209" transform="translate(69.375,383.75)"/>
<path d="M0 0 C5.259375 0.12375 5.259375 0.12375 10.625 0.25 C10.625 10.81 10.625 21.37 10.625 32.25 C7.11875 32.3325 3.6125 32.415 0 32.5 C-1.09393066 32.53641602 -2.18786133 32.57283203 -3.31494141 32.61035156 C-9.36705053 32.67918861 -12.77877334 32.28642982 -17.375 28.25 C-21.00333663 24.43069828 -21.68500458 21.36720994 -21.875 16.25 C-21.68500458 11.13279006 -21.00333663 8.06930172 -17.375 4.25 C-11.91098882 -0.54852264 -7.04658779 -0.23457488 0 0 Z " fill="#FF7209" transform="translate(69.375,175.75)"/>
</svg>
